<svg viewBox="0 0 248 248" fill="none" xmlns="http://www.w3.org/2000/svg">
<g clip-path="url(#clip0)">
<path d="M116.066 257.414H-16.0148C-17.0506 257.414 -18.044 257.003 -18.7765 256.27C-19.5089 255.538 -19.9204 254.544 -19.9204 253.509V-5.50856C-19.9114 -6.53847 -19.4959 -7.52312 -18.7645 -8.24819C-18.033 -8.97326 -17.0447 -9.38004 -16.0148 -9.38H116.066C116.579 -9.38 117.086 -9.27898 117.56 -9.08271C118.034 -8.88643 118.465 -8.59874 118.827 -8.23607C119.19 -7.8734 119.478 -7.44284 119.674 -6.96899C119.87 -6.49513 119.971 -5.98726 119.971 -5.47437V253.509C119.971 254.021 119.87 254.529 119.674 255.003C119.478 255.477 119.19 255.908 118.827 256.27C118.465 256.633 118.034 256.921 117.56 257.117C117.086 257.313 116.579 257.414 116.066 257.414V257.414ZM-16.0148 -9.2432C-17.0047 -9.2414 -17.9536 -8.84735 -18.6536 -8.14736C-19.3536 -7.44737 -19.7476 -6.4985 -19.7494 -5.50856V253.509C-19.7476 254.499 -19.3536 255.447 -18.6536 256.147C-17.9536 256.847 -17.0047 257.241 -16.0148 257.243H116.066C117.056 257.241 118.004 256.847 118.704 256.147C119.404 255.447 119.798 254.499 119.8 253.509V-5.50856C119.798 -6.4985 119.404 -7.44737 118.704 -8.14736C118.004 -8.84735 117.056 -9.2414 116.066 -9.2432H-16.0148Z" fill="#EBEBEB"/>
<path d="M264.015 257.414H131.934C130.899 257.414 129.905 257.003 129.173 256.27C128.44 255.538 128.029 254.544 128.029 253.509V-5.50856C128.038 -6.53847 128.453 -7.52312 129.185 -8.24819C129.916 -8.97326 130.905 -9.38004 131.934 -9.38H264.015C265.051 -9.38 266.044 -8.96852 266.777 -8.23607C267.509 -7.50362 267.92 -6.51021 267.92 -5.47437V253.509C267.92 254.021 267.819 254.529 267.623 255.003C267.427 255.477 267.139 255.908 266.777 256.27C266.414 256.633 265.983 256.921 265.509 257.117C265.036 257.313 264.528 257.414 264.015 257.414V257.414ZM131.934 -9.2432C130.945 -9.2414 129.996 -8.84735 129.296 -8.14736C128.596 -7.44737 128.202 -6.4985 128.2 -5.50856V253.509C128.202 254.499 128.596 255.447 129.296 256.147C129.996 256.847 130.945 257.241 131.934 257.243H264.015C265.005 257.241 265.954 256.847 266.654 256.147C267.354 255.447 267.748 254.499 267.749 253.509V-5.50856C267.748 -6.4985 267.354 -7.44737 266.654 -8.14736C265.954 -8.84735 265.005 -9.2414 264.015 -9.2432H131.934Z" fill="#EBEBEB"/>
<path d="M30.3263 68.083L31.4344 70.3197L33.9105 70.6822L32.1184 72.4264L32.5425 74.8888L30.3263 73.726L28.117 74.8888L28.5411 72.4264L26.749 70.6822L29.2251 70.3197L30.3263 68.083Z" fill="#EBEBEB"/>
<path d="M207.859 238.618L208.967 240.855L211.436 241.217L209.644 242.961L210.068 245.424L207.859 244.261L205.649 245.424L206.067 242.961L204.281 241.217L206.751 240.855L207.859 238.618Z" fill="#F5F5F5"/>
<path d="M107.543 28.3426L107.954 29.1771L108.877 29.3139C108.928 29.3206 108.977 29.3419 109.017 29.3752C109.057 29.4086 109.086 29.4526 109.102 29.5021C109.118 29.5516 109.119 29.6046 109.106 29.6548C109.093 29.7051 109.066 29.7505 109.027 29.7859L108.343 30.4357L108.501 31.3522C108.509 31.4032 108.503 31.4555 108.483 31.5032C108.463 31.5509 108.431 31.5923 108.389 31.6227C108.347 31.6531 108.298 31.6714 108.246 31.6756C108.195 31.6798 108.143 31.6696 108.097 31.6463L107.276 31.2086L106.456 31.6463C106.409 31.6696 106.358 31.6798 106.306 31.6756C106.255 31.6714 106.206 31.6531 106.164 31.6227C106.122 31.5923 106.09 31.5509 106.07 31.5032C106.05 31.4555 106.044 31.4032 106.052 31.3522L106.202 30.4357L105.518 29.7859C105.48 29.7501 105.453 29.7041 105.44 29.6533C105.427 29.6025 105.429 29.5491 105.446 29.4994C105.462 29.4497 105.493 29.4058 105.534 29.3729C105.574 29.34 105.624 29.3195 105.676 29.3139L106.592 29.1771L107.003 28.3426C107.019 28.2836 107.054 28.2315 107.103 28.1945C107.152 28.1574 107.212 28.1373 107.273 28.1373C107.334 28.1373 107.394 28.1574 107.443 28.1945C107.491 28.2315 107.527 28.2836 107.543 28.3426V28.3426Z" fill="#EBEBEB"/>
<path d="M13.0211 19.5532L13.4315 20.3877L14.3549 20.5176C14.4064 20.5259 14.4546 20.5483 14.494 20.5823C14.5335 20.6164 14.5626 20.6608 14.5783 20.7105C14.5939 20.7602 14.5953 20.8133 14.5825 20.8638C14.5696 20.9143 14.5429 20.9603 14.5054 20.9964L13.8214 21.6804L13.9787 22.5902C13.9896 22.6418 13.9854 22.6955 13.9665 22.7448C13.9476 22.7941 13.9149 22.8368 13.8722 22.8679C13.8295 22.899 13.7788 22.9171 13.7261 22.92C13.6734 22.9229 13.621 22.9105 13.5752 22.8843L12.7544 22.4534L11.9336 22.8843C11.8877 22.9105 11.8353 22.9229 11.7826 22.92C11.7299 22.9171 11.6792 22.899 11.6365 22.8679C11.5939 22.8368 11.5611 22.7941 11.5422 22.7448C11.5233 22.6955 11.5191 22.6418 11.53 22.5902L11.6805 21.6804L10.9965 20.9964C10.9588 20.9598 10.9322 20.9133 10.9197 20.8623C10.9072 20.8113 10.9092 20.7578 10.9256 20.7079C10.942 20.658 10.9721 20.6137 11.0124 20.5801C11.0528 20.5464 11.1018 20.5248 11.1538 20.5176L12.0704 20.3877L12.5081 19.5532C12.5301 19.5035 12.566 19.4612 12.6116 19.4316C12.6571 19.4019 12.7103 19.3861 12.7646 19.3861C12.819 19.3861 12.8721 19.4019 12.9177 19.4316C12.9632 19.4612 12.9991 19.5035 13.0211 19.5532Z" fill="#EBEBEB"/>
<path d="M11.9132 184.411C11.9145 184.591 11.8623 184.768 11.7632 184.918C11.664 185.069 11.5224 185.186 11.3563 185.256C11.1902 185.326 11.0071 185.345 10.8302 185.311C10.6533 185.276 10.4905 185.19 10.3626 185.063C10.2347 184.936 10.1474 184.774 10.1117 184.598C10.0761 184.421 10.0937 184.238 10.1623 184.071C10.231 183.905 10.3476 183.762 10.4973 183.662C10.6471 183.562 10.8232 183.508 11.0034 183.508C11.2435 183.508 11.4739 183.603 11.6443 183.772C11.8147 183.941 11.9114 184.171 11.9132 184.411V184.411Z" fill="#EBEBEB"/>
<path d="M141.558 70.5728C141.56 70.753 141.507 70.9295 141.408 71.08C141.309 71.2305 141.167 71.3482 141.001 71.4181C140.835 71.488 140.652 71.507 140.475 71.4727C140.298 71.4383 140.136 71.3522 140.008 71.2253C139.88 71.0983 139.792 70.9363 139.757 70.7596C139.721 70.583 139.739 70.3997 139.807 70.2331C139.876 70.0664 139.993 69.924 140.142 69.8237C140.292 69.7234 140.468 69.6699 140.648 69.6699C140.768 69.669 140.886 69.6917 140.996 69.7366C141.106 69.7816 141.207 69.848 141.291 69.9319C141.376 70.0158 141.443 70.1157 141.489 70.2257C141.535 70.3356 141.558 70.4536 141.558 70.5728V70.5728Z" fill="#EBEBEB"/>
<path d="M94.3898 20.3056C94.3898 20.4855 94.3364 20.6614 94.2364 20.811C94.1365 20.9606 93.9944 21.0772 93.8282 21.1461C93.6619 21.2149 93.479 21.2329 93.3026 21.1978C93.1261 21.1627 92.964 21.0761 92.8368 20.9489C92.7095 20.8216 92.6229 20.6595 92.5878 20.4831C92.5527 20.3066 92.5707 20.1237 92.6396 19.9575C92.7084 19.7912 92.825 19.6492 92.9746 19.5492C93.1242 19.4492 93.3001 19.3959 93.48 19.3959C93.7208 19.3977 93.9511 19.4941 94.1213 19.6643C94.2915 19.8345 94.388 20.0649 94.3898 20.3056V20.3056Z" fill="#F5F5F5"/>
<path d="M95.8301 242.02C98.5324 241.382 100.206 238.674 99.5682 235.972C98.9304 233.27 96.2227 231.596 93.5204 232.234C90.8181 232.872 89.1445 235.579 89.7823 238.282C90.4201 240.984 93.1278 242.658 95.8301 242.02Z" fill="#F0F0F0"/>
<path d="M92.9463 234.186C91.9165 234.183 90.9127 234.509 90.0804 235.116C89.6553 236.091 89.5509 237.176 89.7824 238.214C90.0138 239.253 90.569 240.19 91.368 240.893C92.1669 241.595 93.1683 242.026 94.2277 242.122C95.2871 242.218 96.3498 241.976 97.2624 241.429C97.2624 241.429 97.2624 241.429 97.2624 241.429C97.6664 240.682 97.8693 239.843 97.8515 238.993C97.8336 238.144 97.5954 237.314 97.1603 236.585C96.7252 235.855 96.1081 235.251 95.3694 234.832C94.6307 234.412 93.7958 234.192 92.9463 234.192V234.186Z" fill="#E6E6E6"/>
<path d="M54.013 149.746H12.3916V130.957L54.013 81.4764H73.9311V132.024H84.2527V149.746H73.9311V165.123H54.013V149.746ZM54.013 132.024V106.141L32.0156 132.024H54.013Z" fill="#FF7B51"/>
<path d="M91.3731 123.665C91.3731 108.029 94.1867 97.0846 99.8137 90.8328C105.441 84.5811 114.016 81.4575 125.539 81.462C131.07 81.462 135.614 82.146 139.171 83.514C142.402 84.6783 145.361 86.4916 147.865 88.8424C149.975 90.8574 151.763 93.1852 153.166 95.744C154.554 98.4155 155.599 101.251 156.278 104.185C157.824 110.451 158.596 116.883 158.576 123.337C158.576 138.257 156.052 149.176 151.004 156.093C145.956 163.011 137.263 166.472 124.923 166.476C118.001 166.476 112.408 165.373 108.145 163.166C103.847 160.923 100.227 157.572 97.6591 153.46C95.6755 150.432 94.1319 146.289 93.0284 141.032C91.8828 135.315 91.3281 129.495 91.3731 123.665V123.665ZM114.041 123.72C114.041 134.208 114.964 141.36 116.811 145.177C118.658 148.993 121.341 150.911 124.862 150.929C125.979 150.942 127.087 150.732 128.123 150.313C129.159 149.894 130.101 149.273 130.895 148.487C132.6 146.859 133.854 144.287 134.657 140.772C135.459 137.256 135.861 131.784 135.861 124.356C135.861 113.439 134.935 106.1 133.083 102.338C131.232 98.5757 128.455 96.697 124.752 96.7016C120.977 96.7016 118.241 98.619 116.544 102.454C114.848 106.289 114.014 113.377 114.041 123.72Z" fill="#FF7B51"/>
<path d="M207.27 149.746H165.648V130.956L207.27 81.4757H227.188V132.023H237.544V149.746H227.188V165.122H207.27V149.746ZM207.27 132.023V106.141L185.279 132.023H207.27Z" fill="#FF7B51"/>
<g opacity="0.3">
<path opacity="0.3" d="M90.4839 52.6041C90.4839 52.8574 90.4087 53.1049 90.2679 53.3154C90.127 53.5259 89.9269 53.6899 89.6927 53.7865C89.4586 53.8831 89.2011 53.908 88.9528 53.8581C88.7045 53.8082 88.4766 53.6857 88.298 53.5061C88.1194 53.3266 87.9981 53.098 87.9495 52.8494C87.901 52.6009 87.9273 52.3435 88.0251 52.1099C88.123 51.8763 88.288 51.677 88.4992 51.5373C88.7105 51.3975 88.9584 51.3237 89.2117 51.325C89.3793 51.325 89.5453 51.3582 89.7001 51.4225C89.8549 51.4869 89.9955 51.5812 90.1137 51.7001C90.232 51.8189 90.3255 51.96 90.3891 52.1151C90.4526 52.2703 90.4848 52.4365 90.4839 52.6041V52.6041Z" fill="#FF7B51"/>
<path opacity="0.3" d="M2.91167 101.736C3.41032 101.736 3.81455 101.332 3.81455 100.833C3.81455 100.334 3.41032 99.9301 2.91167 99.9301C2.41302 99.9301 2.00879 100.334 2.00879 100.833C2.00879 101.332 2.41302 101.736 2.91167 101.736Z" fill="#FF7B51"/>
<path opacity="0.3" d="M152.078 233.591C152.792 233.591 153.371 233.012 153.371 232.298C153.371 231.584 152.792 231.005 152.078 231.005C151.364 231.005 150.786 231.584 150.786 232.298C150.786 233.012 151.364 233.591 152.078 233.591Z" fill="#FF7B51"/>
<path opacity="0.3" d="M183.166 180.991C183.665 180.991 184.069 180.587 184.069 180.088C184.069 179.589 183.665 179.185 183.166 179.185C182.667 179.185 182.263 179.589 182.263 180.088C182.263 180.587 182.667 180.991 183.166 180.991Z" fill="#FF7B51"/>
<path opacity="0.3" d="M243.132 18.4041C243.132 18.5827 243.079 18.7573 242.98 18.9057C242.881 19.0542 242.74 19.1699 242.575 19.2383C242.41 19.3066 242.229 19.3245 242.053 19.2897C241.878 19.2548 241.717 19.1688 241.591 19.0426C241.465 18.9163 241.379 18.7554 241.344 18.5803C241.309 18.4051 241.327 18.2236 241.395 18.0586C241.464 17.8936 241.579 17.7526 241.728 17.6534C241.876 17.5542 242.051 17.5013 242.23 17.5013C242.469 17.5013 242.699 17.5964 242.868 17.7657C243.037 17.935 243.132 18.1647 243.132 18.4041V18.4041Z" fill="#FF7B51"/>
<path opacity="0.3" d="M71.1612 0.196032C71.1612 0.374605 71.1083 0.549168 71.0091 0.697646C70.9099 0.846124 70.7688 0.961848 70.6039 1.03019C70.4389 1.09852 70.2573 1.1164 70.0822 1.08157C69.9071 1.04673 69.7462 0.960735 69.6199 0.834465C69.4936 0.708195 69.4077 0.54732 69.3728 0.372178C69.338 0.197036 69.3559 0.0154948 69.4242 -0.149485C69.4925 -0.314465 69.6083 -0.455477 69.7567 -0.554687C69.9052 -0.653897 70.0798 -0.706848 70.2583 -0.706848C70.4972 -0.705059 70.7259 -0.609359 70.8948 -0.440422C71.0637 -0.271486 71.1594 -0.0428733 71.1612 0.196032V0.196032Z" fill="#FF7B51"/>
<path opacity="0.3" d="M142.947 47.5699C143.445 47.5699 143.85 47.1656 143.85 46.667C143.85 46.1683 143.445 45.7641 142.947 45.7641C142.448 45.7641 142.044 46.1683 142.044 46.667C142.044 47.1656 142.448 47.5699 142.947 47.5699Z" fill="#FF7B51"/>
</g>
<path d="M49.6017 47.5767C57.8785 47.5767 64.5881 40.8671 64.5881 32.5903C64.5881 24.3135 57.8785 17.6038 49.6017 17.6038C41.3249 17.6038 34.6152 24.3135 34.6152 32.5903C34.6152 40.8671 41.3249 47.5767 49.6017 47.5767Z" fill="#FF7B51"/>
<path opacity="0.7" d="M49.6017 47.5767C57.8785 47.5767 64.5881 40.8671 64.5881 32.5903C64.5881 24.3135 57.8785 17.6038 49.6017 17.6038C41.3249 17.6038 34.6152 24.3135 34.6152 32.5903C34.6152 40.8671 41.3249 47.5767 49.6017 47.5767Z" fill="white"/>
<path opacity="0.2" d="M44.4372 21.2838C42.3962 21.2775 40.3756 21.6895 38.5001 22.4944C36.195 25.0279 34.8268 28.2742 34.6232 31.6934C34.4196 35.1125 35.3928 38.4983 37.3809 41.2874C39.3691 44.0765 42.2522 46.1009 45.5508 47.0236C48.8493 47.9464 52.3644 47.7119 55.5112 46.3592V46.3592C57.4621 44.2091 58.7469 41.5389 59.2095 38.6727C59.672 35.8064 59.2925 32.8676 58.1169 30.2129C56.9413 27.5583 55.0203 25.302 52.5871 23.7182C50.1539 22.1343 47.3131 21.291 44.4098 21.2906L44.4372 21.2838Z" fill="#FF7B51"/>
<path opacity="0.2" d="M42.946 25.2441C42.946 25.5147 42.8657 25.7792 42.7154 26.0041C42.5651 26.2291 42.3514 26.4044 42.1015 26.508C41.8515 26.6115 41.5764 26.6386 41.3111 26.5858C41.0457 26.533 40.802 26.4027 40.6106 26.2114C40.4193 26.0201 40.289 25.7763 40.2362 25.511C40.1835 25.2456 40.2106 24.9706 40.3141 24.7206C40.4176 24.4706 40.593 24.257 40.8179 24.1066C41.0429 23.9563 41.3074 23.8761 41.578 23.8761C41.9408 23.8761 42.2887 24.0202 42.5453 24.2768C42.8018 24.5333 42.946 24.8813 42.946 25.2441Z" fill="#FF7B51"/>
<path opacity="0.2" d="M59.0612 23.8761C59.0612 24.1467 58.981 24.4112 58.8307 24.6361C58.6803 24.8611 58.4667 25.0364 58.2167 25.14C57.9667 25.2435 57.6917 25.2706 57.4263 25.2178C57.1609 25.165 56.9172 25.0348 56.7259 24.8434C56.5346 24.6521 56.4043 24.4084 56.3515 24.143C56.2987 23.8776 56.3258 23.6026 56.4293 23.3526C56.5329 23.1026 56.7082 22.889 56.9332 22.7387C57.1581 22.5883 57.4226 22.5081 57.6932 22.5081C58.056 22.5081 58.404 22.6522 58.6605 22.9088C58.9171 23.1653 59.0612 23.5133 59.0612 23.8761Z" fill="#FF7B51"/>
<path opacity="0.2" d="M56.325 33.6436C56.325 34.0874 56.1934 34.5211 55.9468 34.8901C55.7003 35.259 55.3499 35.5466 54.94 35.7164C54.53 35.8862 54.0789 35.9306 53.6437 35.844C53.2085 35.7575 52.8088 35.5438 52.495 35.23C52.1812 34.9163 51.9676 34.5165 51.881 34.0813C51.7944 33.6461 51.8389 33.195 52.0087 32.7851C52.1785 32.3751 52.466 32.0247 52.835 31.7782C53.2039 31.5317 53.6377 31.4001 54.0814 31.4001C54.6764 31.4001 55.2471 31.6365 55.6678 32.0572C56.0886 32.478 56.325 33.0486 56.325 33.6436V33.6436Z" fill="#FF7B51"/>
<path opacity="0.2" d="M49.1979 40.039C49.1979 40.6316 49.0222 41.2108 48.693 41.7035C48.3638 42.1962 47.8959 42.5801 47.3485 42.8069C46.801 43.0336 46.1987 43.093 45.6175 42.9774C45.0364 42.8618 44.5025 42.5765 44.0835 42.1575C43.6646 41.7385 43.3792 41.2047 43.2636 40.6235C43.148 40.0424 43.2074 39.44 43.4341 38.8925C43.6609 38.3451 44.0449 37.8772 44.5375 37.548C45.0302 37.2188 45.6094 37.0431 46.202 37.0431C46.9965 37.0431 47.7586 37.3588 48.3204 37.9206C48.8823 38.4824 49.1979 39.2445 49.1979 40.039V40.039Z" fill="#FF7B51"/>
<path d="M227.215 213.362C228.884 206.292 224.505 199.208 217.435 197.539C210.365 195.87 203.281 200.249 201.612 207.319C199.944 214.389 204.322 221.473 211.392 223.142C218.463 224.811 225.547 220.432 227.215 213.362Z" fill="#FF7B51"/>
<path opacity="0.3" d="M227.215 213.362C228.884 206.292 224.505 199.208 217.435 197.539C210.365 195.87 203.281 200.249 201.612 207.319C199.944 214.389 204.322 221.473 211.392 223.142C218.463 224.811 225.547 220.432 227.215 213.362Z" fill="white"/>
<path opacity="0.4" d="M222.722 200.157C219.806 199.277 216.675 199.436 213.864 200.608C211.053 201.78 208.736 203.892 207.309 206.583C205.882 209.274 205.434 212.377 206.04 215.361C206.647 218.346 208.271 221.027 210.636 222.947C211.862 223.32 213.137 223.509 214.418 223.508C217.134 223.508 219.782 222.667 222.001 221.101C224.219 219.535 225.899 217.32 226.808 214.762C227.718 212.203 227.814 209.426 227.082 206.811C226.351 204.196 224.827 201.871 222.722 200.157V200.157Z" fill="#FF7B51"/>
<path d="M201.86 214.288C187.817 220.895 198.289 225.991 218.078 218.878C236.402 212.291 243.386 203.987 226.97 206.566C227.852 210.02 204.904 218.96 201.86 214.288Z" fill="#FF7B51"/>
<path opacity="0.2" d="M222.565 81.4757C204.172 93.904 180.362 110.32 173.788 149.746H172.386C178.782 110.758 201.723 93.9519 220.123 81.4757H222.565Z" fill="black"/>
<path d="M127.42 204.897C115.792 204.897 104.294 199.65 98.6921 191.087C95.2379 185.793 91.2228 174.705 103.179 159.91L104.239 160.772C95.7851 171.237 94.2255 181.736 99.8412 190.341C106.681 200.806 122.817 206.073 136.592 202.325C150.703 198.488 159.267 186.217 160.095 168.658C162.92 108.596 194.828 90.0941 218.125 76.5851C232.606 68.1924 243.064 62.1322 240.766 49.3346C240.444 47.563 239.74 46.3386 238.597 45.5862C235.622 43.6232 229.808 44.9843 223.077 46.5507C209.869 49.6287 191.784 53.8421 181.011 35.5178L182.195 34.8338C192.455 52.2963 209.261 48.377 222.77 45.2306C229.808 43.5958 235.882 42.1799 239.35 44.4577C240.82 45.4221 241.723 46.9474 242.086 49.1088C244.555 62.8436 233.194 69.4373 218.796 77.7821C195.765 91.1338 164.233 109.417 161.442 168.754C160.58 186.949 151.647 199.678 136.928 203.679C133.826 204.505 130.629 204.914 127.42 204.897Z" fill="#FF7B51"/>
<path opacity="0.2" d="M127.42 204.897C115.792 204.897 104.294 199.65 98.6921 191.087C95.2379 185.793 91.2228 174.705 103.179 159.91L104.239 160.772C95.7851 171.237 94.2255 181.736 99.8412 190.341C106.681 200.806 122.817 206.073 136.592 202.325C150.703 198.488 159.267 186.217 160.095 168.658C162.92 108.596 194.828 90.0941 218.125 76.5851C232.606 68.1924 243.064 62.1322 240.766 49.3346C240.444 47.563 239.74 46.3386 238.597 45.5862C235.622 43.6232 229.808 44.9843 223.077 46.5507C209.869 49.6287 191.784 53.8421 181.011 35.5178L182.195 34.8338C192.455 52.2963 209.261 48.377 222.77 45.2306C229.808 43.5958 235.882 42.1799 239.35 44.4577C240.82 45.4221 241.723 46.9474 242.086 49.1088C244.555 62.8436 233.194 69.4373 218.796 77.7821C195.765 91.1338 164.233 109.417 161.442 168.754C160.58 186.949 151.647 199.678 136.928 203.679C133.826 204.505 130.629 204.914 127.42 204.897Z" fill="white"/>
<path d="M166.928 19.348C170.079 19.3662 173.211 19.8573 176.216 20.8049C176.216 20.8049 183.74 33.6436 184.63 36.5848C184.315 39.485 179.424 44.2388 179.424 44.2388L166.928 19.348Z" fill="#FF7B51"/>
<path opacity="0.3" d="M166.928 19.348C170.079 19.3662 173.211 19.8573 176.216 20.8049C176.216 20.8049 183.74 33.6436 184.63 36.5848C184.315 39.485 179.424 44.2388 179.424 44.2388L166.928 19.348Z" fill="white"/>
<path d="M189.213 81.681C186.315 78.1381 183.673 74.394 181.305 70.477C180.731 69.4875 180.186 68.4797 179.671 67.4537C179.377 66.8723 179.096 66.2909 178.823 65.7027C178.464 65.1303 178.185 64.5112 177.995 63.8627C177.174 55.1965 180.143 48.8147 177.311 41.8585L166.039 46.2634C166.039 46.2634 166.996 58.6575 169.185 66.0994C170.553 70.7028 173.617 74.6836 176.579 78.3704C177.502 79.5195 178.392 80.7028 179.315 81.8588C180.238 83.0148 181.169 83.9518 182.051 85.0394C183.385 86.6878 183.823 88.2679 182.817 90.2104L182.646 90.5182C182.359 91.0244 183.699 91.599 184.548 90.5182C185.916 88.7535 185.724 88.8629 186.914 87.3581C187.639 86.4484 188.467 85.4566 189.185 84.6221C189.532 84.2118 189.724 83.6935 189.729 83.1565C189.734 82.6195 189.551 82.0976 189.213 81.681V81.681Z" fill="#FF7B51"/>
<path opacity="0.7" d="M189.213 81.681C186.315 78.1381 183.673 74.394 181.305 70.477C180.731 69.4875 180.186 68.4797 179.671 67.4537C179.377 66.8723 179.096 66.2909 178.823 65.7027C178.464 65.1303 178.185 64.5112 177.995 63.8627C177.174 55.1965 180.143 48.8147 177.311 41.8585L166.039 46.2634C166.039 46.2634 166.996 58.6575 169.185 66.0994C170.553 70.7028 173.617 74.6836 176.579 78.3704C177.502 79.5195 178.392 80.7028 179.315 81.8588C180.238 83.0148 181.169 83.9518 182.051 85.0394C183.385 86.6878 183.823 88.2679 182.817 90.2104L182.646 90.5182C182.359 91.0244 183.699 91.599 184.548 90.5182C185.916 88.7535 185.724 88.8629 186.914 87.3581C187.639 86.4484 188.467 85.4566 189.185 84.6221C189.532 84.2118 189.724 83.6935 189.729 83.1565C189.734 82.6195 189.551 82.0976 189.213 81.681V81.681Z" fill="white"/>
<path opacity="0.3" d="M186.456 78.1173C184.667 80.0347 182.682 81.7588 180.533 83.261C180.827 83.5893 181.114 83.945 181.408 84.2596C183.56 82.8058 185.514 81.0792 187.222 79.1228L186.456 78.1173Z" fill="#FF7B51"/>
<path opacity="0.3" d="M189.213 81.6809L189.131 81.5852C188.604 82.189 188.298 82.9533 188.262 83.7534C188.218 84.3024 188.307 84.8538 188.522 85.3608L189.172 84.5879C189.511 84.1818 189.701 83.6711 189.708 83.1417C189.716 82.6123 189.541 82.0965 189.213 81.6809V81.6809Z" fill="#FF7B51"/>
<path d="M164.246 27.556C163.024 29.3858 161.558 31.0403 159.889 32.474C158.964 33.2717 157.949 33.9603 156.866 34.526C156.297 34.8176 155.707 35.0667 155.101 35.2715L154.636 35.422L154.486 35.463L154.164 35.552C153.966 35.5989 153.765 35.6309 153.562 35.6477C152.985 35.6918 152.405 35.6387 151.845 35.4904C151.14 35.2902 150.464 34.9981 149.834 34.6217C149.328 34.3257 148.837 34.0038 148.364 33.6573C147.509 33.0212 146.691 32.336 145.915 31.6053C144.419 30.1876 143.046 28.6454 141.811 26.9951C141.573 26.6736 141.455 26.2792 141.477 25.8799C141.499 25.4807 141.66 25.1016 141.931 24.8081C142.203 24.5146 142.569 24.3251 142.965 24.2723C143.361 24.2196 143.764 24.3068 144.103 24.519H144.157C145.772 25.545 147.399 26.6258 148.986 27.5902C149.793 28.0622 150.573 28.541 151.346 28.9103C151.699 29.0951 152.062 29.2595 152.434 29.4028C152.665 29.505 152.913 29.5652 153.166 29.5806C153.207 29.5806 153.166 29.5328 152.912 29.5396C152.833 29.5348 152.753 29.5348 152.673 29.5396L152.523 29.5738L152.748 29.4575C153.052 29.294 153.347 29.1136 153.631 28.9172C154.243 28.4856 154.815 28.0003 155.341 27.4671C156.536 26.2148 157.655 24.8923 158.692 23.5067C159.261 22.8708 160.046 22.4702 160.895 22.3835C161.743 22.2969 162.594 22.5304 163.279 23.0384C163.964 23.5463 164.435 24.2919 164.598 25.129C164.762 25.966 164.607 26.8341 164.164 27.5628L164.246 27.556Z" fill="#FF7B51"/>
<path opacity="0.7" d="M164.246 27.556C163.024 29.3858 161.558 31.0403 159.889 32.474C158.964 33.2717 157.949 33.9603 156.866 34.526C156.297 34.8176 155.707 35.0667 155.101 35.2715L154.636 35.422L154.486 35.463L154.164 35.552C153.966 35.5989 153.765 35.6309 153.562 35.6477C152.985 35.6918 152.405 35.6387 151.845 35.4904C151.14 35.2902 150.464 34.9981 149.834 34.6217C149.328 34.3257 148.837 34.0038 148.364 33.6573C147.509 33.0212 146.691 32.336 145.915 31.6053C144.419 30.1876 143.046 28.6454 141.811 26.9951C141.573 26.6736 141.455 26.2792 141.477 25.8799C141.499 25.4807 141.66 25.1016 141.931 24.8081C142.203 24.5146 142.569 24.3251 142.965 24.2723C143.361 24.2196 143.764 24.3068 144.103 24.519H144.157C145.772 25.545 147.399 26.6258 148.986 27.5902C149.793 28.0622 150.573 28.541 151.346 28.9103C151.699 29.0951 152.062 29.2595 152.434 29.4028C152.665 29.505 152.913 29.5652 153.166 29.5806C153.207 29.5806 153.166 29.5328 152.912 29.5396C152.833 29.5348 152.753 29.5348 152.673 29.5396L152.523 29.5738L152.748 29.4575C153.052 29.294 153.347 29.1136 153.631 28.9172C154.243 28.4856 154.815 28.0003 155.341 27.4671C156.536 26.2148 157.655 24.8923 158.692 23.5067C159.261 22.8708 160.046 22.4702 160.895 22.3835C161.743 22.2969 162.594 22.5304 163.279 23.0384C163.964 23.5463 164.435 24.2919 164.598 25.129C164.762 25.966 164.607 26.8341 164.164 27.5628L164.246 27.556Z" fill="white"/>
<path d="M139.246 23.0553L140.047 24.4233C140.047 24.4233 140.655 26.2154 141.88 26.5437L145.204 25.4698L145.033 25.1894C144.609 24.5464 144.657 23.2947 144.8 22.255C144.944 21.2153 144.411 21.1811 144.014 21.441C143.733 21.7644 143.535 22.152 143.439 22.5696C143.276 22.3438 143.095 22.1311 142.899 21.9335L141.887 20.9212C141.674 20.7136 141.391 20.594 141.094 20.5864C140.798 20.5788 140.509 20.6837 140.286 20.8802L139.465 21.612C139.271 21.7921 139.143 22.0331 139.103 22.2953C139.063 22.5576 139.114 22.8255 139.246 23.0553V23.0553Z" fill="#FF7B51"/>
<path opacity="0.7" d="M139.246 23.0553L140.047 24.4233C140.047 24.4233 140.655 26.2154 141.88 26.5437L145.204 25.4698L145.033 25.1894C144.609 24.5464 144.657 23.2947 144.8 22.255C144.944 21.2153 144.411 21.1811 144.014 21.441C143.733 21.7644 143.535 22.152 143.439 22.5696C143.276 22.3438 143.095 22.1311 142.899 21.9335L141.887 20.9212C141.674 20.7136 141.391 20.594 141.094 20.5864C140.798 20.5788 140.509 20.6837 140.286 20.8802L139.465 21.612C139.271 21.7921 139.143 22.0331 139.103 22.2953C139.063 22.5576 139.114 22.8255 139.246 23.0553V23.0553Z" fill="white"/>
<path d="M170.287 18.1305C166.599 19.1078 163.067 20.5975 159.794 22.556C159.283 22.8756 158.883 23.3436 158.645 23.8974C158.408 24.4512 158.346 25.0643 158.467 25.6545C159.787 32.1114 162.79 40.7572 166.032 46.2634L181.155 40.0048C181.258 37.3372 177.585 28.7051 173.843 20.3603C173.173 18.8624 171.88 17.7474 170.287 18.1305Z" fill="#FF7B51"/>
<path opacity="0.8" d="M170.287 18.1305C166.599 19.1078 163.067 20.5975 159.794 22.556C159.283 22.8756 158.883 23.3436 158.645 23.8974C158.408 24.4512 158.346 25.0643 158.467 25.6545C159.787 32.1114 162.79 40.7572 166.032 46.2634L181.155 40.0048C181.258 37.3372 177.585 28.7051 173.843 20.3603C173.173 18.8624 171.88 17.7474 170.287 18.1305Z" fill="white"/>
<path opacity="0.3" d="M176.189 25.6477L173.187 24.6422C173.871 26.4001 176.285 28.6231 177.975 29.9295C177.427 28.5615 176.819 27.1251 176.189 25.6477Z" fill="#FF7B51"/>
<path d="M169.295 11.3589C168.043 8.97857 165.341 7.78157 162.099 8.04833C159.363 8.28089 156.942 11.0716 157.229 12.5764C157.516 14.0812 159.814 14.7242 160.252 15.244L158.357 16.612C158.133 16.774 157.944 16.9798 157.801 17.2168C157.658 17.4539 157.564 17.7175 157.526 17.9916C157.488 18.2658 157.505 18.5448 157.578 18.812C157.65 19.0792 157.776 19.329 157.947 19.5464C158.747 20.5587 159.801 21.5984 160.409 22.3644C165.649 22.2276 169.527 20.2304 170.929 18.3083C170.403 15.8733 170.512 13.7255 169.295 11.3589Z" fill="#FF7B51"/>
<path opacity="0.8" d="M169.295 11.3589C168.043 8.97857 165.341 7.78157 162.099 8.04833C159.363 8.28089 156.942 11.0716 157.229 12.5764C157.516 14.0812 159.814 14.7242 160.252 15.244L158.357 16.612C158.133 16.774 157.944 16.9798 157.801 17.2168C157.658 17.4539 157.564 17.7175 157.526 17.9916C157.488 18.2658 157.505 18.5448 157.578 18.812C157.65 19.0792 157.776 19.329 157.947 19.5464C158.747 20.5587 159.801 21.5984 160.409 22.3644C165.649 22.2276 169.527 20.2304 170.929 18.3083C170.403 15.8733 170.512 13.7255 169.295 11.3589Z" fill="white"/>
<path d="M166.723 12.8363C167.095 13.7902 167.175 14.833 166.955 15.8328C166.734 16.8327 166.222 17.7446 165.483 18.4535C164.745 19.1624 163.812 19.6363 162.804 19.8154C161.796 19.9945 160.758 19.8707 159.82 19.4596C158.882 19.0486 158.087 18.3688 157.536 17.5061C156.984 16.6434 156.701 15.6367 156.722 14.613C156.742 13.5893 157.066 12.5948 157.652 11.755C158.238 10.9153 159.059 10.268 160.013 9.89512C161.293 9.3965 162.718 9.42617 163.976 9.97762C165.234 10.5291 166.222 11.5572 166.723 12.8363V12.8363Z" fill="#263238"/>
<path d="M211.135 74.4784C211.06 72.2281 210.957 72.4264 210.895 70.5317C210.854 69.3689 210.848 68.0762 210.841 66.9613C210.838 66.4318 210.653 65.9194 210.317 65.5106C209.98 65.1018 209.513 64.8217 208.994 64.7177C208.091 64.5331 207.181 64.362 206.258 64.1705C205.075 63.9174 203.905 63.6439 202.749 63.3087C201.846 63.0488 200.957 62.7615 200.075 62.44C199.192 62.1185 198.2 61.756 197.284 61.3319C196.203 60.8736 195.136 60.3812 194.083 59.8682C192.899 59.3073 191.73 58.719 190.56 58.124C186.059 50.6752 185.964 45.7641 181.135 40.0048L170.765 44.697C170.765 44.697 178.385 58.2129 183.57 63.9448C186.559 67.2417 191.244 68.7328 195.423 69.8135C198.44 70.5865 201.497 71.1815 204.555 71.7493C205.745 71.9681 207.038 72.0502 208.064 72.7616C208.823 73.3436 209.343 74.1827 209.527 75.1214C209.573 75.3129 209.614 75.5044 209.651 75.6959C209.781 76.2705 211.183 75.8327 211.135 74.4784Z" fill="#FF7B51"/>
<path opacity="0.8" d="M211.135 74.4784C211.06 72.2281 210.957 72.4264 210.895 70.5317C210.854 69.3689 210.848 68.0762 210.841 66.9613C210.838 66.4318 210.653 65.9194 210.317 65.5106C209.98 65.1018 209.513 64.8217 208.994 64.7177C208.091 64.5331 207.181 64.362 206.258 64.1705C205.075 63.9174 203.905 63.6439 202.749 63.3087C201.846 63.0488 200.957 62.7615 200.075 62.44C199.192 62.1185 198.2 61.756 197.284 61.3319C196.203 60.8736 195.136 60.3812 194.083 59.8682C192.899 59.3073 191.73 58.719 190.56 58.124C186.059 50.6752 185.964 45.7641 181.135 40.0048L170.765 44.697C170.765 44.697 178.385 58.2129 183.57 63.9448C186.559 67.2417 191.244 68.7328 195.423 69.8135C198.44 70.5865 201.497 71.1815 204.555 71.7493C205.745 71.9681 207.038 72.0502 208.064 72.7616C208.823 73.3436 209.343 74.1827 209.527 75.1214C209.573 75.3129 209.614 75.5044 209.651 75.6959C209.781 76.2705 211.183 75.8327 211.135 74.4784Z" fill="white"/>
<path opacity="0.3" d="M205.875 64.0816C205.465 63.9927 205.054 63.9037 204.637 63.8011C204.671 66.1678 203.563 70.2444 203.16 71.4825L204.459 71.7287C205.311 69.2648 205.788 66.6871 205.875 64.0816V64.0816Z" fill="#FF7B51"/>
<path opacity="0.3" d="M210.868 66.9613C210.866 66.4327 210.682 65.9211 210.347 65.5124C210.012 65.1038 209.546 64.8231 209.028 64.7177L208.344 64.5878C208.454 65.3653 208.852 66.0733 209.459 66.5714C209.85 66.9323 210.318 67.1991 210.827 67.3511C210.868 67.228 210.868 67.0912 210.868 66.9613Z" fill="#FF7B51"/>
<path d="M165.758 12.8774C166.032 13.9171 164.869 15.0046 163.945 14.1086C163.084 13.1845 162.14 12.3398 161.127 11.5846C160.177 10.9895 161.442 9.94986 162.94 10.3534C163.579 10.514 164.17 10.8277 164.661 11.2674C165.152 11.7071 165.528 12.2597 165.758 12.8774V12.8774Z" fill="white"/>
<path d="M165.834 45.9283C165.355 46.1061 166.23 46.9269 166.23 46.9269C166.23 46.9269 175.806 43.6505 181.62 40.2784C181.634 40.0743 181.6 39.8697 181.519 39.6817C181.438 39.4938 181.313 39.3278 181.155 39.1977C176.179 41.7289 171.064 43.976 165.834 45.9283V45.9283Z" fill="#FF7B51"/>
<path opacity="0.5" d="M165.834 45.9283C165.355 46.1061 166.23 46.9269 166.23 46.9269C166.23 46.9269 175.806 43.6505 181.62 40.2784C181.634 40.0743 181.6 39.8697 181.519 39.6817C181.438 39.4938 181.313 39.3278 181.155 39.1977C176.179 41.7289 171.064 43.976 165.834 45.9283V45.9283Z" fill="white"/>
<path d="M172.879 17.6791C174.767 18.6367 176.538 19.6422 178.351 20.7571C179.233 21.318 180.109 21.8857 180.977 22.5013C181.846 23.1169 182.708 23.7462 183.577 24.4575L183.898 24.7243L184.302 25.0936C184.542 25.3088 184.77 25.5372 184.986 25.7776C185.204 26.017 185.389 26.2496 185.567 26.4616C185.745 26.6737 185.936 26.9268 186.094 27.1456C186.731 28.025 187.32 28.9383 187.858 29.8816C188.918 31.7109 189.833 33.6206 190.594 35.593C190.735 35.9657 190.742 36.3756 190.615 36.753C190.488 37.1305 190.233 37.4521 189.896 37.6633C189.558 37.8745 189.157 37.9622 188.762 37.9115C188.367 37.8608 188.002 37.6748 187.728 37.3851L187.694 37.3441C186.326 35.8872 185.006 34.355 183.679 32.9254C182.352 31.4959 181.005 30.0458 179.89 29.4097C178.337 28.4452 176.607 27.4808 174.89 26.5369L169.719 23.6641C168.917 23.2396 168.317 22.514 168.05 21.6468C167.783 20.7797 167.871 19.8421 168.296 19.0402C168.72 18.2384 169.446 17.6381 170.313 17.3712C171.18 17.1044 172.118 17.193 172.92 17.6175L172.879 17.6791Z" fill="#FF7B51"/>
<path opacity="0.8" d="M172.879 17.6791C174.767 18.6367 176.538 19.6422 178.351 20.7571C179.233 21.318 180.109 21.8857 180.977 22.5013C181.846 23.1169 182.708 23.7462 183.577 24.4575L183.898 24.7243L184.302 25.0936C184.542 25.3088 184.77 25.5372 184.986 25.7776C185.204 26.017 185.389 26.2496 185.567 26.4616C185.745 26.6737 185.936 26.9268 186.094 27.1456C186.731 28.025 187.32 28.9383 187.858 29.8816C188.918 31.7109 189.833 33.6206 190.594 35.593C190.735 35.9657 190.742 36.3756 190.615 36.753C190.488 37.1305 190.233 37.4521 189.896 37.6633C189.558 37.8745 189.157 37.9622 188.762 37.9115C188.367 37.8608 188.002 37.6748 187.728 37.3851L187.694 37.3441C186.326 35.8872 185.006 34.355 183.679 32.9254C182.352 31.4959 181.005 30.0458 179.89 29.4097C178.337 28.4452 176.607 27.4808 174.89 26.5369L169.719 23.6641C168.917 23.2396 168.317 22.514 168.05 21.6468C167.783 20.7797 167.871 19.8421 168.296 19.0402C168.72 18.2384 169.446 17.6381 170.313 17.3712C171.18 17.1044 172.118 17.193 172.92 17.6175L172.879 17.6791Z" fill="white"/>
<path d="M192.215 39.0062L191.634 37.5492C191.634 37.5492 191.312 35.6888 190.156 35.1689L186.736 35.7093L186.853 36.0102C187.167 36.6942 186.928 37.946 186.62 38.9446C186.312 39.9432 186.832 40.0732 187.27 39.8748C187.516 39.7654 187.756 39.3208 188.016 38.8488C188.143 39.0866 188.287 39.3152 188.446 39.5328L189.288 40.6888C189.464 40.9283 189.723 41.0925 190.015 41.1483C190.307 41.2042 190.609 41.1475 190.861 40.9898L191.791 40.3947C192.009 40.2457 192.17 40.027 192.247 39.7747C192.324 39.5224 192.313 39.2514 192.215 39.0062V39.0062Z" fill="#FF7B51"/>
<path opacity="0.8" d="M192.215 39.0062L191.634 37.5492C191.634 37.5492 191.312 35.6888 190.156 35.1689L186.736 35.7093L186.853 36.0102C187.167 36.6942 186.928 37.946 186.62 38.9446C186.312 39.9432 186.832 40.0732 187.27 39.8748C187.516 39.7654 187.756 39.3208 188.016 38.8488C188.143 39.0866 188.287 39.3152 188.446 39.5328L189.288 40.6888C189.464 40.9283 189.723 41.0925 190.015 41.1483C190.307 41.2042 190.609 41.1475 190.861 40.9898L191.791 40.3947C192.009 40.2457 192.17 40.027 192.247 39.7747C192.324 39.5224 192.313 39.2514 192.215 39.0062V39.0062Z" fill="white"/>
<path opacity="0.3" d="M169.992 25.545L169.158 25.6134L164.035 37.9802C164.315 38.0003 164.596 37.9773 164.869 37.9118C164.869 37.9118 171.545 35.422 173.563 34.4918C172.208 31.6942 169.992 25.545 169.992 25.545Z" fill="#FF7B51"/>
<path d="M160.642 28.7872C161.265 32.0199 162.42 35.1266 164.062 37.9802C166.566 37.1183 170.738 35.4904 172.763 34.5602C171.402 31.6429 170.194 28.6566 169.144 25.6135C167.003 25.7571 162.304 27.556 160.642 28.7872Z" fill="white"/>
<path opacity="0.3" d="M165.724 31.4616C165.624 31.7961 165.427 32.0934 165.158 32.316C164.889 32.5385 164.56 32.6762 164.213 32.7117C163.865 32.7473 163.515 32.679 163.207 32.5155C162.899 32.352 162.645 32.1007 162.48 31.7934C162.314 31.4861 162.243 31.1365 162.276 30.789C162.31 30.4414 162.445 30.1115 162.666 29.841C162.886 29.5704 163.182 29.3713 163.516 29.269C163.85 29.1667 164.206 29.1656 164.541 29.266C164.989 29.4005 165.365 29.7073 165.587 30.119C165.809 30.5306 165.858 31.0136 165.724 31.4616V31.4616Z" fill="#FF7B51"/>
<path opacity="0.6" d="M167.03 29.1087C167.004 29.2228 166.943 29.3263 166.857 29.4054C166.77 29.4846 166.662 29.5357 166.546 29.5521C166.43 29.5686 166.311 29.5495 166.206 29.4975C166.101 29.4454 166.014 29.3628 165.957 29.2605C165.9 29.1583 165.875 29.041 165.885 28.9243C165.896 28.8075 165.941 28.6966 166.016 28.6062C166.091 28.5158 166.191 28.4501 166.304 28.4177C166.416 28.3853 166.536 28.3877 166.647 28.4247C166.786 28.469 166.903 28.5643 166.974 28.6912C167.045 28.8182 167.065 28.9673 167.03 29.1087Z" fill="#FF7B51"/>
<path opacity="0.6" d="M168.563 28.5136C168.547 28.593 168.514 28.6681 168.468 28.7342C168.421 28.8003 168.361 28.8558 168.291 28.8974C168.222 28.9389 168.144 28.9655 168.064 28.9754C167.984 28.9852 167.902 28.9782 167.825 28.9548C167.747 28.9314 167.675 28.892 167.614 28.8392C167.553 28.7865 167.503 28.7215 167.468 28.6484C167.433 28.5753 167.414 28.4958 167.412 28.4148C167.41 28.3339 167.424 28.2534 167.455 28.1785C167.477 28.1061 167.513 28.0387 167.561 27.9803C167.609 27.9218 167.668 27.8734 167.734 27.8378C167.801 27.8022 167.874 27.7802 167.949 27.7729C168.025 27.7656 168.101 27.7733 168.173 27.7954C168.319 27.8398 168.442 27.94 168.515 28.0745C168.588 28.2089 168.605 28.3667 168.563 28.5136V28.5136Z" fill="#FF7B51"/>
<path opacity="0.5" d="M170.711 33.842L164.384 36.3386L164.007 35.0937L170.328 32.5971L170.711 33.842Z" fill="#FF7B51"/>
<path opacity="0.2" d="M135.806 128.904C135.791 132.887 135.407 136.86 134.657 140.772C133.85 144.287 132.596 146.859 130.895 148.487C130.103 149.274 129.162 149.895 128.127 150.314C127.093 150.733 125.985 150.942 124.869 150.929C121.353 150.929 118.67 149.012 116.818 145.177C116.493 144.488 116.216 143.777 115.991 143.049C112.081 146.407 108.44 150.067 105.101 153.993L101.469 158.275C103.424 160.256 105.679 161.916 108.152 163.193C112.411 165.396 118.002 166.499 124.924 166.504C126.141 166.504 127.318 166.47 128.46 166.401C132.648 160.205 136.113 153.549 138.788 146.565L148.946 120.081L135.806 128.904Z" fill="black"/>
<path d="M44.2388 165.04L56.2088 177.01L89.7248 145.43C78.172 141.018 55.7094 153.542 44.2388 165.04Z" fill="#263238"/>
<path d="M85.9832 206.764C82.1596 202.934 74.0132 194.794 74.0132 194.794L105.593 161.278C109.978 172.803 97.4539 195.286 85.9832 206.764Z" fill="#263238"/>
<path d="M131.798 131.319L144.855 106.141L119.677 119.212C111.59 123.406 104.123 128.701 97.4884 134.944L54.5674 175.348L75.6551 196.436L116.059 153.515C122.305 146.879 127.602 139.409 131.798 131.319V131.319Z" fill="#FF7B51"/>
<path opacity="0.6" d="M131.798 131.319L144.855 106.141L119.677 119.212C111.59 123.406 104.123 128.701 97.4884 134.944L54.5674 175.348L75.6551 196.436L116.059 153.515C122.305 146.879 127.602 139.409 131.798 131.319V131.319Z" fill="white"/>
<path d="M104.985 154.835C109.858 154.835 113.808 150.884 113.808 146.011C113.808 141.138 109.858 137.188 104.985 137.188C100.112 137.188 96.1611 141.138 96.1611 146.011C96.1611 150.884 100.112 154.835 104.985 154.835Z" fill="white"/>
<path d="M104.985 151.681C108.116 151.681 110.655 149.143 110.655 146.011C110.655 142.879 108.116 140.341 104.985 140.341C101.853 140.341 99.3145 142.879 99.3145 146.011C99.3145 149.143 101.853 151.681 104.985 151.681Z" fill="#FF7B51"/>
<path opacity="0.3" d="M82.7891 188.857L62.1392 168.207L79.0476 152.297L98.699 171.955L82.7891 188.857Z" fill="#FF7B51"/>
<path d="M48.9105 183.932C33.4521 185.184 28.3289 195.081 26.5779 208.235C25.6887 214.945 25.292 221.737 19.6627 225.663C19.324 225.893 19.069 226.227 18.9359 226.614C18.8028 227.001 18.7987 227.421 18.9243 227.811C19.0498 228.201 19.2983 228.539 19.6324 228.776C19.9665 229.013 20.3683 229.135 20.7776 229.124C41.5301 228.474 51.2087 218.317 52.4263 214.076C52.1067 216.293 51.5353 218.466 50.7231 220.553C50.5738 220.922 50.5446 221.328 50.6396 221.714C50.7346 222.1 50.9489 222.446 51.2521 222.703C51.5553 222.96 51.9319 223.114 52.3282 223.145C52.7245 223.175 53.1202 223.08 53.4591 222.872C59.2799 219.226 66.5851 212.51 67.0707 201.613C62.7889 195.546 48.9105 183.932 48.9105 183.932Z" fill="#FF7B51"/>
<path opacity="0.2" d="M48.9105 183.932C33.4521 185.184 28.3289 195.081 26.5779 208.235C25.6887 214.945 25.292 221.737 19.6627 225.663C19.324 225.893 19.069 226.227 18.9359 226.614C18.8028 227.001 18.7987 227.421 18.9243 227.811C19.0498 228.201 19.2983 228.539 19.6324 228.776C19.9665 229.013 20.3683 229.135 20.7776 229.124C41.5301 228.474 51.2087 218.317 52.4263 214.076C52.1067 216.293 51.5353 218.466 50.7231 220.553C50.5738 220.922 50.5446 221.328 50.6396 221.714C50.7346 222.1 50.9489 222.446 51.2521 222.703C51.5553 222.96 51.9319 223.114 52.3282 223.145C52.7245 223.175 53.1202 223.08 53.4591 222.872C59.2799 219.226 66.5851 212.51 67.0707 201.613C62.7889 195.546 48.9105 183.932 48.9105 183.932Z" fill="white"/>
<path d="M69.4717 206.285L44.7109 181.524L57.8985 178.672L72.324 193.098L69.4717 206.285Z" fill="#FF7B51"/>
</g>
<defs>
<clipPath id="clip0">
<rect width="248" height="248" fill="white"/>
</clipPath>
</defs>
</svg>
