<svg width="1324" height="287" viewBox="0 0 1324 287" fill="none" xmlns="http://www.w3.org/2000/svg">
<path d="M285.883 164H267.963L227.387 102.688V164H209.467V74.528H227.387L267.963 135.968V74.528H285.883V164ZM335.08 165.152C328.253 165.152 322.109 163.659 316.648 160.672C311.187 157.6 306.877 153.291 303.72 147.744C300.648 142.197 299.112 135.797 299.112 128.544C299.112 121.291 300.691 114.891 303.848 109.344C307.091 103.797 311.485 99.5307 317.032 96.544C322.579 93.472 328.765 91.936 335.592 91.936C342.419 91.936 348.605 93.472 354.152 96.544C359.699 99.5307 364.051 103.797 367.208 109.344C370.451 114.891 372.072 121.291 372.072 128.544C372.072 135.797 370.408 142.197 367.08 147.744C363.837 153.291 359.4 157.6 353.768 160.672C348.221 163.659 341.992 165.152 335.08 165.152ZM335.08 149.536C338.323 149.536 341.352 148.768 344.168 147.232C347.069 145.611 349.373 143.221 351.08 140.064C352.787 136.907 353.64 133.067 353.64 128.544C353.64 121.803 351.848 116.64 348.264 113.056C344.765 109.387 340.456 107.552 335.336 107.552C330.216 107.552 325.907 109.387 322.408 113.056C318.995 116.64 317.288 121.803 317.288 128.544C317.288 135.285 318.952 140.491 322.28 144.16C325.693 147.744 329.96 149.536 335.08 149.536ZM406.081 107.808V142.112C406.081 144.501 406.636 146.251 407.745 147.36C408.94 148.384 410.902 148.896 413.633 148.896H421.953V164H410.689C395.585 164 388.033 156.661 388.033 141.984V107.808H379.585V93.088H388.033V75.552H406.081V93.088H421.953V107.808H406.081ZM500.762 127.008C500.762 129.568 500.591 131.872 500.25 133.92H448.41C448.837 139.04 450.629 143.051 453.786 145.952C456.943 148.853 460.826 150.304 465.434 150.304C472.09 150.304 476.826 147.445 479.642 141.728H498.97C496.922 148.555 492.997 154.187 487.194 158.624C481.391 162.976 474.266 165.152 465.818 165.152C458.991 165.152 452.847 163.659 447.386 160.672C442.01 157.6 437.786 153.291 434.714 147.744C431.727 142.197 430.234 135.797 430.234 128.544C430.234 121.205 431.727 114.763 434.714 109.216C437.701 103.669 441.882 99.4027 447.258 96.416C452.634 93.4293 458.821 91.936 465.818 91.936C472.559 91.936 478.575 93.3867 483.866 96.288C489.242 99.1893 493.381 103.328 496.282 108.704C499.269 113.995 500.762 120.096 500.762 127.008ZM482.202 121.888C482.117 117.28 480.453 113.611 477.21 110.88C473.967 108.064 469.999 106.656 465.306 106.656C460.869 106.656 457.114 108.021 454.042 110.752C451.055 113.397 449.221 117.109 448.538 121.888H482.202ZM540.978 165.152C535.175 165.152 529.97 164.128 525.362 162.08C520.754 159.947 517.085 157.088 514.354 153.504C511.709 149.92 510.258 145.952 510.002 141.6H528.05C528.391 144.331 529.714 146.592 532.018 148.384C534.407 150.176 537.351 151.072 540.85 151.072C544.263 151.072 546.909 150.389 548.786 149.024C550.749 147.659 551.73 145.909 551.73 143.776C551.73 141.472 550.535 139.765 548.146 138.656C545.842 137.461 542.13 136.181 537.01 134.816C531.719 133.536 527.367 132.213 523.954 130.848C520.626 129.483 517.725 127.392 515.25 124.576C512.861 121.76 511.666 117.963 511.666 113.184C511.666 109.259 512.775 105.675 514.994 102.432C517.298 99.1893 520.541 96.6293 524.722 94.752C528.989 92.8747 533.981 91.936 539.698 91.936C548.146 91.936 554.887 94.0693 559.922 98.336C564.957 102.517 567.73 108.192 568.242 115.36H551.09C550.834 112.544 549.639 110.325 547.506 108.704C545.458 106.997 542.685 106.144 539.186 106.144C535.943 106.144 533.426 106.741 531.634 107.936C529.927 109.131 529.074 110.795 529.074 112.928C529.074 115.317 530.269 117.152 532.658 118.432C535.047 119.627 538.759 120.864 543.794 122.144C548.914 123.424 553.138 124.747 556.466 126.112C559.794 127.477 562.653 129.611 565.042 132.512C567.517 135.328 568.797 139.083 568.882 143.776C568.882 147.872 567.73 151.541 565.426 154.784C563.207 158.027 559.965 160.587 555.698 162.464C551.517 164.256 546.61 165.152 540.978 165.152ZM614.824 74.656C624.211 74.656 632.445 76.4907 639.528 80.16C646.696 83.8293 652.2 89.0773 656.04 95.904C659.965 102.645 661.928 110.496 661.928 119.456C661.928 128.416 659.965 136.267 656.04 143.008C652.2 149.664 646.696 154.827 639.528 158.496C632.445 162.165 624.211 164 614.824 164H583.592V74.656H614.824ZM614.184 148.768C623.571 148.768 630.824 146.208 635.944 141.088C641.064 135.968 643.624 128.757 643.624 119.456C643.624 110.155 641.064 102.901 635.944 97.696C630.824 92.4053 623.571 89.76 614.184 89.76H601.512V148.768H614.184ZM726.03 118.176C731.065 119.115 735.203 121.632 738.446 125.728C741.689 129.824 743.31 134.517 743.31 139.808C743.31 144.587 742.115 148.811 739.726 152.48C737.422 156.064 734.051 158.88 729.614 160.928C725.177 162.976 719.929 164 713.87 164H675.342V74.656H712.206C718.265 74.656 723.47 75.6373 727.822 77.6C732.259 79.5627 735.587 82.2933 737.806 85.792C740.11 89.2907 741.262 93.2587 741.262 97.696C741.262 102.901 739.854 107.253 737.038 110.752C734.307 114.251 730.638 116.725 726.03 118.176ZM693.262 111.52H709.646C713.913 111.52 717.198 110.581 719.502 108.704C721.806 106.741 722.958 103.968 722.958 100.384C722.958 96.8 721.806 94.0267 719.502 92.064C717.198 90.1013 713.913 89.12 709.646 89.12H693.262V111.52ZM711.31 149.408C715.662 149.408 719.033 148.384 721.422 146.336C723.897 144.288 725.134 141.387 725.134 137.632C725.134 133.792 723.854 130.805 721.294 128.672C718.734 126.453 715.278 125.344 710.926 125.344H693.262V149.408H711.31Z" fill="#FF6231"/>
<path d="M214.536 205.96V237.856C214.536 241.648 215.52 244.504 217.488 246.424C219.504 248.344 222.288 249.304 225.84 249.304C229.44 249.304 232.224 248.344 234.192 246.424C236.208 244.504 237.216 241.648 237.216 237.856V205.96H245.424V237.712C245.424 241.792 244.536 245.248 242.76 248.08C240.984 250.912 238.608 253.024 235.632 254.416C232.656 255.808 229.368 256.504 225.768 256.504C222.168 256.504 218.88 255.808 215.904 254.416C212.976 253.024 210.648 250.912 208.92 248.08C207.192 245.248 206.328 241.792 206.328 237.712V205.96H214.536ZM264.319 202.72V256H256.111V202.72H264.319ZM284.671 223.024V244.984C284.671 246.472 285.007 247.552 285.679 248.224C286.399 248.848 287.599 249.16 289.279 249.16H294.319V256H287.839C284.143 256 281.311 255.136 279.343 253.408C277.375 251.68 276.391 248.872 276.391 244.984V223.024H271.711V216.328H276.391V206.464H284.671V216.328H294.319V223.024H284.671ZM306.06 211.072C304.572 211.072 303.324 210.568 302.316 209.56C301.308 208.552 300.804 207.304 300.804 205.816C300.804 204.328 301.308 203.08 302.316 202.072C303.324 201.064 304.572 200.56 306.06 200.56C307.5 200.56 308.724 201.064 309.732 202.072C310.74 203.08 311.244 204.328 311.244 205.816C311.244 207.304 310.74 208.552 309.732 209.56C308.724 210.568 307.5 211.072 306.06 211.072ZM310.092 216.328V256H301.884V216.328H310.092ZM368.893 215.68C372.013 215.68 374.797 216.328 377.245 217.624C379.741 218.92 381.685 220.84 383.077 223.384C384.517 225.928 385.237 229 385.237 232.6V256H377.101V233.824C377.101 230.272 376.213 227.56 374.437 225.688C372.661 223.768 370.237 222.808 367.165 222.808C364.093 222.808 361.645 223.768 359.821 225.688C358.045 227.56 357.157 230.272 357.157 233.824V256H349.021V233.824C349.021 230.272 348.133 227.56 346.357 225.688C344.581 223.768 342.157 222.808 339.085 222.808C336.013 222.808 333.565 223.768 331.741 225.688C329.965 227.56 329.077 230.272 329.077 233.824V256H320.869V216.328H329.077V220.864C330.421 219.232 332.125 217.96 334.189 217.048C336.253 216.136 338.461 215.68 340.813 215.68C343.981 215.68 346.813 216.352 349.309 217.696C351.805 219.04 353.725 220.984 355.069 223.528C356.269 221.128 358.141 219.232 360.685 217.84C363.229 216.4 365.965 215.68 368.893 215.68ZM392.945 235.984C392.945 232 393.761 228.472 395.393 225.4C397.073 222.328 399.329 219.952 402.161 218.272C405.041 216.544 408.209 215.68 411.665 215.68C414.785 215.68 417.497 216.304 419.801 217.552C422.153 218.752 424.025 220.264 425.417 222.088V216.328H433.697V256H425.417V250.096C424.025 251.968 422.129 253.528 419.729 254.776C417.329 256.024 414.593 256.648 411.521 256.648C408.113 256.648 404.993 255.784 402.161 254.056C399.329 252.28 397.073 249.832 395.393 246.712C393.761 243.544 392.945 239.968 392.945 235.984ZM425.417 236.128C425.417 233.392 424.841 231.016 423.689 229C422.585 226.984 421.121 225.448 419.297 224.392C417.473 223.336 415.505 222.808 413.393 222.808C411.281 222.808 409.313 223.336 407.489 224.392C405.665 225.4 404.177 226.912 403.025 228.928C401.921 230.896 401.369 233.248 401.369 235.984C401.369 238.72 401.921 241.12 403.025 243.184C404.177 245.248 405.665 246.832 407.489 247.936C409.361 248.992 411.329 249.52 413.393 249.52C415.505 249.52 417.473 248.992 419.297 247.936C421.121 246.88 422.585 245.344 423.689 243.328C424.841 241.264 425.417 238.864 425.417 236.128ZM454.054 223.024V244.984C454.054 246.472 454.39 247.552 455.062 248.224C455.782 248.848 456.982 249.16 458.662 249.16H463.702V256H457.222C453.526 256 450.694 255.136 448.726 253.408C446.758 251.68 445.774 248.872 445.774 244.984V223.024H441.094V216.328H445.774V206.464H454.054V216.328H463.702V223.024H454.054ZM507.627 235.192C507.627 236.68 507.531 238.024 507.339 239.224H477.027C477.267 242.392 478.443 244.936 480.555 246.856C482.667 248.776 485.259 249.736 488.331 249.736C492.747 249.736 495.867 247.888 497.691 244.192H506.547C505.347 247.84 503.163 250.84 499.995 253.192C496.875 255.496 492.987 256.648 488.331 256.648C484.539 256.648 481.131 255.808 478.107 254.128C475.131 252.4 472.779 250 471.051 246.928C469.371 243.808 468.531 240.208 468.531 236.128C468.531 232.048 469.347 228.472 470.979 225.4C472.659 222.28 474.987 219.88 477.963 218.2C480.987 216.52 484.443 215.68 488.331 215.68C492.075 215.68 495.411 216.496 498.339 218.128C501.267 219.76 503.547 222.064 505.179 225.04C506.811 227.968 507.627 231.352 507.627 235.192ZM499.059 232.6C499.011 229.576 497.931 227.152 495.819 225.328C493.707 223.504 491.091 222.592 487.971 222.592C485.139 222.592 482.715 223.504 480.699 225.328C478.683 227.104 477.483 229.528 477.099 232.6H499.059ZM575.52 256H567.312L542.616 218.632V256H534.408V205.888H542.616L567.312 243.184V205.888H575.52V256ZM603.506 256.648C599.762 256.648 596.378 255.808 593.354 254.128C590.33 252.4 587.954 250 586.226 246.928C584.498 243.808 583.634 240.208 583.634 236.128C583.634 232.096 584.522 228.52 586.298 225.4C588.074 222.28 590.498 219.88 593.57 218.2C596.642 216.52 600.074 215.68 603.866 215.68C607.658 215.68 611.09 216.52 614.162 218.2C617.234 219.88 619.658 222.28 621.434 225.4C623.21 228.52 624.098 232.096 624.098 236.128C624.098 240.16 623.186 243.736 621.362 246.856C619.538 249.976 617.042 252.4 613.874 254.128C610.754 255.808 607.298 256.648 603.506 256.648ZM603.506 249.52C605.618 249.52 607.586 249.016 609.41 248.008C611.282 247 612.794 245.488 613.946 243.472C615.098 241.456 615.674 239.008 615.674 236.128C615.674 233.248 615.122 230.824 614.018 228.856C612.914 226.84 611.45 225.328 609.626 224.32C607.802 223.312 605.834 222.808 603.722 222.808C601.61 222.808 599.642 223.312 597.818 224.32C596.042 225.328 594.626 226.84 593.57 228.856C592.514 230.824 591.986 233.248 591.986 236.128C591.986 240.4 593.066 243.712 595.226 246.064C597.434 248.368 600.194 249.52 603.506 249.52ZM641.789 223.024V244.984C641.789 246.472 642.125 247.552 642.797 248.224C643.517 248.848 644.717 249.16 646.397 249.16H651.437V256H644.957C641.261 256 638.429 255.136 636.461 253.408C634.493 251.68 633.509 248.872 633.509 244.984V223.024H628.829V216.328H633.509V206.464H641.789V216.328H651.437V223.024H641.789ZM695.362 235.192C695.362 236.68 695.266 238.024 695.074 239.224H664.762C665.002 242.392 666.178 244.936 668.29 246.856C670.402 248.776 672.994 249.736 676.066 249.736C680.482 249.736 683.602 247.888 685.426 244.192H694.282C693.082 247.84 690.898 250.84 687.73 253.192C684.61 255.496 680.722 256.648 676.066 256.648C672.274 256.648 668.866 255.808 665.842 254.128C662.866 252.4 660.514 250 658.786 246.928C657.106 243.808 656.266 240.208 656.266 236.128C656.266 232.048 657.082 228.472 658.714 225.4C660.394 222.28 662.722 219.88 665.698 218.2C668.722 216.52 672.178 215.68 676.066 215.68C679.81 215.68 683.146 216.496 686.074 218.128C689.002 219.76 691.282 222.064 692.914 225.04C694.546 227.968 695.362 231.352 695.362 235.192ZM686.794 232.6C686.746 229.576 685.666 227.152 683.554 225.328C681.442 223.504 678.826 222.592 675.706 222.592C672.874 222.592 670.45 223.504 668.434 225.328C666.418 227.104 665.218 229.528 664.834 232.6H686.794ZM717.839 256.648C714.719 256.648 711.911 256.096 709.415 254.992C706.967 253.84 705.023 252.304 703.583 250.384C702.143 248.416 701.375 246.232 701.279 243.832H709.775C709.919 245.512 710.711 246.928 712.151 248.08C713.639 249.184 715.487 249.736 717.695 249.736C719.999 249.736 721.775 249.304 723.023 248.44C724.319 247.528 724.967 246.376 724.967 244.984C724.967 243.496 724.247 242.392 722.807 241.672C721.415 240.952 719.183 240.16 716.111 239.296C713.135 238.48 710.711 237.688 708.839 236.92C706.967 236.152 705.335 234.976 703.943 233.392C702.599 231.808 701.927 229.72 701.927 227.128C701.927 225.016 702.551 223.096 703.799 221.368C705.047 219.592 706.823 218.2 709.127 217.192C711.479 216.184 714.167 215.68 717.191 215.68C721.703 215.68 725.327 216.832 728.063 219.136C730.847 221.392 732.335 224.488 732.527 228.424H724.319C724.175 226.648 723.455 225.232 722.159 224.176C720.863 223.12 719.111 222.592 716.903 222.592C714.743 222.592 713.087 223 711.935 223.816C710.783 224.632 710.207 225.712 710.207 227.056C710.207 228.112 710.591 229 711.359 229.72C712.127 230.44 713.063 231.016 714.167 231.448C715.271 231.832 716.903 232.336 719.063 232.96C721.943 233.728 724.295 234.52 726.119 235.336C727.991 236.104 729.599 237.256 730.943 238.792C732.287 240.328 732.983 242.368 733.031 244.912C733.031 247.168 732.407 249.184 731.159 250.96C729.911 252.736 728.135 254.128 725.831 255.136C723.575 256.144 720.911 256.648 717.839 256.648ZM757.867 230.872C757.867 225.976 758.995 221.584 761.251 217.696C763.555 213.808 766.651 210.784 770.539 208.624C774.475 206.416 778.771 205.312 783.427 205.312C788.755 205.312 793.483 206.632 797.611 209.272C801.787 211.864 804.811 215.56 806.683 220.36H796.819C795.523 217.72 793.723 215.752 791.419 214.456C789.115 213.16 786.451 212.512 783.427 212.512C780.115 212.512 777.163 213.256 774.571 214.744C771.979 216.232 769.939 218.368 768.451 221.152C767.011 223.936 766.291 227.176 766.291 230.872C766.291 234.568 767.011 237.808 768.451 240.592C769.939 243.376 771.979 245.536 774.571 247.072C777.163 248.56 780.115 249.304 783.427 249.304C786.451 249.304 789.115 248.656 791.419 247.36C793.723 246.064 795.523 244.096 796.819 241.456H806.683C804.811 246.256 801.787 249.952 797.611 252.544C793.483 255.136 788.755 256.432 783.427 256.432C778.723 256.432 774.427 255.352 770.539 253.192C766.651 250.984 763.555 247.936 761.251 244.048C758.995 240.16 757.867 235.768 757.867 230.872ZM833.499 256.648C829.755 256.648 826.371 255.808 823.347 254.128C820.323 252.4 817.947 250 816.219 246.928C814.491 243.808 813.627 240.208 813.627 236.128C813.627 232.096 814.515 228.52 816.291 225.4C818.067 222.28 820.491 219.88 823.563 218.2C826.635 216.52 830.067 215.68 833.859 215.68C837.651 215.68 841.083 216.52 844.155 218.2C847.227 219.88 849.651 222.28 851.427 225.4C853.203 228.52 854.091 232.096 854.091 236.128C854.091 240.16 853.179 243.736 851.355 246.856C849.531 249.976 847.035 252.4 843.867 254.128C840.747 255.808 837.291 256.648 833.499 256.648ZM833.499 249.52C835.611 249.52 837.579 249.016 839.403 248.008C841.275 247 842.787 245.488 843.939 243.472C845.091 241.456 845.667 239.008 845.667 236.128C845.667 233.248 845.115 230.824 844.011 228.856C842.907 226.84 841.443 225.328 839.619 224.32C837.795 223.312 835.827 222.808 833.715 222.808C831.603 222.808 829.635 223.312 827.811 224.32C826.035 225.328 824.619 226.84 823.563 228.856C822.507 230.824 821.979 233.248 821.979 236.128C821.979 240.4 823.059 243.712 825.219 246.064C827.427 248.368 830.187 249.52 833.499 249.52ZM870.413 202.72V256H862.205V202.72H870.413ZM889.397 202.72V256H881.189V202.72H889.397ZM936.533 235.192C936.533 236.68 936.437 238.024 936.245 239.224H905.933C906.173 242.392 907.349 244.936 909.461 246.856C911.573 248.776 914.165 249.736 917.237 249.736C921.653 249.736 924.773 247.888 926.597 244.192H935.453C934.253 247.84 932.069 250.84 928.901 253.192C925.781 255.496 921.893 256.648 917.237 256.648C913.445 256.648 910.037 255.808 907.013 254.128C904.037 252.4 901.685 250 899.957 246.928C898.277 243.808 897.437 240.208 897.437 236.128C897.437 232.048 898.253 228.472 899.885 225.4C901.565 222.28 903.893 219.88 906.869 218.2C909.893 216.52 913.349 215.68 917.237 215.68C920.981 215.68 924.317 216.496 927.245 218.128C930.173 219.76 932.453 222.064 934.085 225.04C935.717 227.968 936.533 231.352 936.533 235.192ZM927.965 232.6C927.917 229.576 926.837 227.152 924.725 225.328C922.613 223.504 919.997 222.592 916.877 222.592C914.045 222.592 911.621 223.504 909.605 225.328C907.589 227.104 906.389 229.528 906.005 232.6H927.965ZM941.875 236.128C941.875 232.048 942.691 228.472 944.323 225.4C946.003 222.28 948.307 219.88 951.235 218.2C954.163 216.52 957.523 215.68 961.315 215.68C966.115 215.68 970.075 216.832 973.195 219.136C976.363 221.392 978.499 224.632 979.603 228.856H970.747C970.027 226.888 968.875 225.352 967.291 224.248C965.707 223.144 963.715 222.592 961.315 222.592C957.955 222.592 955.267 223.792 953.251 226.192C951.283 228.544 950.299 231.856 950.299 236.128C950.299 240.4 951.283 243.736 953.251 246.136C955.267 248.536 957.955 249.736 961.315 249.736C966.067 249.736 969.211 247.648 970.747 243.472H979.603C978.451 247.504 976.291 250.72 973.123 253.12C969.955 255.472 966.019 256.648 961.315 256.648C957.523 256.648 954.163 255.808 951.235 254.128C948.307 252.4 946.003 250 944.323 246.928C942.691 243.808 941.875 240.208 941.875 236.128ZM997.359 223.024V244.984C997.359 246.472 997.695 247.552 998.367 248.224C999.087 248.848 1000.29 249.16 1001.97 249.16H1007.01V256H1000.53C996.831 256 993.999 255.136 992.031 253.408C990.063 251.68 989.079 248.872 989.079 244.984V223.024H984.399V216.328H989.079V206.464H997.359V216.328H1007.01V223.024H997.359ZM1018.75 211.072C1017.26 211.072 1016.01 210.568 1015 209.56C1014 208.552 1013.49 207.304 1013.49 205.816C1013.49 204.328 1014 203.08 1015 202.072C1016.01 201.064 1017.26 200.56 1018.75 200.56C1020.19 200.56 1021.41 201.064 1022.42 202.072C1023.43 203.08 1023.93 204.328 1023.93 205.816C1023.93 207.304 1023.43 208.552 1022.42 209.56C1021.41 210.568 1020.19 211.072 1018.75 211.072ZM1022.78 216.328V256H1014.57V216.328H1022.78ZM1050.76 256.648C1047.02 256.648 1043.64 255.808 1040.61 254.128C1037.59 252.4 1035.21 250 1033.48 246.928C1031.76 243.808 1030.89 240.208 1030.89 236.128C1030.89 232.096 1031.78 228.52 1033.56 225.4C1035.33 222.28 1037.76 219.88 1040.83 218.2C1043.9 216.52 1047.33 215.68 1051.12 215.68C1054.92 215.68 1058.35 216.52 1061.42 218.2C1064.49 219.88 1066.92 222.28 1068.69 225.4C1070.47 228.52 1071.36 232.096 1071.36 236.128C1071.36 240.16 1070.44 243.736 1068.62 246.856C1066.8 249.976 1064.3 252.4 1061.13 254.128C1058.01 255.808 1054.56 256.648 1050.76 256.648ZM1050.76 249.52C1052.88 249.52 1054.84 249.016 1056.67 248.008C1058.54 247 1060.05 245.488 1061.2 243.472C1062.36 241.456 1062.93 239.008 1062.93 236.128C1062.93 233.248 1062.38 230.824 1061.28 228.856C1060.17 226.84 1058.71 225.328 1056.88 224.32C1055.06 223.312 1053.09 222.808 1050.98 222.808C1048.87 222.808 1046.9 223.312 1045.08 224.32C1043.3 225.328 1041.88 226.84 1040.83 228.856C1039.77 230.824 1039.24 233.248 1039.24 236.128C1039.24 240.4 1040.32 243.712 1042.48 246.064C1044.69 248.368 1047.45 249.52 1050.76 249.52ZM1099.49 215.68C1102.61 215.68 1105.39 216.328 1107.84 217.624C1110.33 218.92 1112.28 220.84 1113.67 223.384C1115.06 225.928 1115.76 229 1115.76 232.6V256H1107.62V233.824C1107.62 230.272 1106.73 227.56 1104.96 225.688C1103.18 223.768 1100.76 222.808 1097.69 222.808C1094.61 222.808 1092.17 223.768 1090.34 225.688C1088.57 227.56 1087.68 230.272 1087.68 233.824V256H1079.47V216.328H1087.68V220.864C1089.02 219.232 1090.73 217.96 1092.79 217.048C1094.9 216.136 1097.13 215.68 1099.49 215.68Z" fill="#FF6231"/>
<path d="M38.5324 61.9567H154.13V265.38H0V61.9567H38.5324ZM77.0648 143.326H57.7986V163.668H38.5324V82.299H19.2662V245.037H134.863V82.299H96.331V163.668H77.0648V143.326Z" fill="#FF6231"/>
</svg>
